<svg width="179" height="40" viewBox="0 0 179 40" fill="none" xmlns="http://www.w3.org/2000/svg">
<g filter="url(#filter0_d_1_26)">
<path d="M25.6573 28.6671C25.4222 28.7356 25.2338 28.8922 25.0279 29.0135C23.3358 30.0057 21.6456 30.9999 19.9438 32C19.1162 31.5166 18.2945 31.0352 17.4708 30.5537C16.4684 29.9686 15.464 29.3834 14.4616 28.8002C14.4033 28.7669 14.3372 28.7415 14.277 28.7121C14.0691 28.5516 13.8457 28.4166 13.6048 28.3109C13.2221 28.033 12.8025 27.8138 12.3984 27.5731C11.3202 26.9312 10.2381 26.2932 9.158 25.6532C9.09195 25.6043 9.0259 25.5554 8.93848 25.4908C8.93848 25.3244 8.93848 25.1503 8.93848 24.9741C8.94236 24.8626 8.95013 24.751 8.95013 24.6375C8.95013 22.8233 8.95013 21.0091 8.95013 19.1949C9.02784 19.1343 9.10361 19.0795 9.17743 19.0227C9.43386 18.8916 9.69224 18.7663 9.92537 18.5941C11.2969 17.7937 12.6704 16.9952 14.0419 16.1928C14.0555 16.1849 14.0594 16.1634 14.073 16.1399C14.0808 16.0303 14.0866 15.9109 14.0963 15.7759C12.717 14.9735 11.3455 14.175 9.97199 13.3765C9.70584 13.2219 9.43969 13.0673 9.17549 12.9127C9.09972 12.8579 9.0259 12.8012 8.9579 12.7523C8.9579 10.6523 8.9579 8.56218 8.9579 6.47203C9.02784 6.41528 9.09584 6.36242 9.16189 6.30958C9.41832 6.14714 9.67476 5.98667 9.93119 5.82423C10.7549 5.34475 11.5825 4.87115 12.4023 4.38579C12.8219 4.13725 13.261 3.91805 13.6553 3.62645C13.9059 3.53838 14.1177 3.38181 14.3333 3.23112C16.039 2.2428 17.7428 1.25448 19.4484 0.268117C19.5961 0.182006 19.7457 0.0958963 19.9089 0C20.3615 0.26029 20.8142 0.522539 21.2668 0.784786C22.6519 1.58914 24.0351 2.3935 25.4203 3.19785C25.465 3.22329 25.5135 3.24091 25.5602 3.26244C25.7816 3.44053 26.0497 3.52859 26.2926 3.66754C26.5354 3.81236 26.7763 3.95915 27.0211 4.10006C28.0177 4.67348 29.0143 5.24297 30.0109 5.81444C30.2459 5.9847 30.5082 6.1041 30.7724 6.22348C30.8812 6.27828 30.889 6.37417 30.889 6.48376C30.887 8.50541 30.887 10.5271 30.8909 12.5487C30.8909 12.6661 30.8579 12.7464 30.7666 12.809C30.516 12.9675 30.2654 13.126 30.0148 13.2846C28.6044 14.1065 27.194 14.9305 25.7952 15.7446C25.7797 15.9149 25.768 16.0519 25.7564 16.1928C27.1823 17.0226 28.5946 17.8465 30.007 18.6685C30.2556 18.8289 30.5082 18.9855 30.7782 19.1108C30.9142 19.1695 30.8851 19.2908 30.8851 19.4004C30.889 21.2283 30.8909 23.0582 30.8948 24.8861C30.8929 24.9976 30.8929 25.1092 30.8851 25.2188C30.8754 25.3558 30.9375 25.5143 30.7821 25.6141C30.2498 25.9253 29.7156 26.2306 29.1852 26.5457C28.2275 27.1152 27.2736 27.6886 26.3198 28.26C26.0905 28.3794 25.8516 28.4851 25.6573 28.6671ZM19.0249 19.1049C18.9997 19.0834 18.9783 19.056 18.9492 19.0384C17.6204 18.2594 16.2896 17.4825 14.9608 16.7036C14.922 16.682 14.887 16.6586 14.8404 16.6997C14.8579 18.51 14.8171 20.328 14.8656 22.1579C16.5694 23.156 18.2576 24.1483 19.9399 25.1346C21.5174 24.2089 23.0716 23.2969 24.649 22.3712C23.5378 21.7215 22.4635 21.0874 21.3834 20.4651C20.8258 20.1441 20.2896 19.7801 19.7029 19.512C19.4756 19.375 19.2503 19.2399 19.0249 19.1049ZM19.5786 12.1338C19.8059 12.3021 20.0468 12.4469 20.3032 12.5702C21.871 13.4901 23.4387 14.4118 25.0317 15.3473C25.0317 13.4764 25.0317 11.6543 25.0317 9.82253C23.3144 8.82051 21.601 7.82045 19.9089 6.83213C18.3197 7.76173 16.7753 8.66589 15.1959 9.58963C16.1264 10.1337 17.0143 10.6562 17.9059 11.1729C18.4616 11.4938 19.0016 11.8461 19.5786 12.1338Z" fill="#FA0100"/>
<path d="M26.291 3.66402C26.0482 3.52703 25.7781 3.437 25.5586 3.25891C26.5785 2.66592 27.6004 2.07488 28.6203 1.48189C29.0671 1.22356 29.5217 0.975012 29.9588 0.701022C30.2657 0.50923 30.5377 0.519021 30.8466 0.706899C32.4105 1.65021 33.9802 2.58372 35.5518 3.51333C35.8568 3.69338 36.0006 3.93214 36.0006 4.29419C35.9947 12.0951 35.9947 19.8959 36.0006 27.6968C36.0006 28.0902 35.8471 28.3446 35.511 28.5344C33.9957 29.3897 32.4882 30.2566 31.002 31.1628C30.6077 31.4035 30.2521 31.4015 29.8481 31.1588C28.5251 30.3662 27.1885 29.5991 25.8578 28.8202C25.7859 28.7771 25.6946 28.7556 25.6596 28.6636C25.8519 28.4816 26.0928 28.3759 26.3221 28.2526C27.241 28.7928 28.1599 29.3329 29.0807 29.8711C29.5314 30.1353 29.984 30.3956 30.4309 30.6539C31.9345 29.7791 33.4187 28.9161 34.9321 28.0354C34.4756 27.7692 34.052 27.5226 33.6305 27.2741C32.6825 26.7183 31.7325 26.1605 30.7844 25.6047C30.9399 25.5049 30.8777 25.3464 30.8874 25.2094C30.8952 25.0978 30.8932 24.9863 30.8971 24.8767C32.3464 25.7123 33.7956 26.546 35.2662 27.3934C35.2662 19.6259 35.2662 11.9072 35.2662 4.17286C33.7801 3.28826 32.2978 2.40563 30.7728 1.49951C30.7728 3.11409 30.7728 4.66408 30.7728 6.21408C30.5105 6.0947 30.2463 5.97532 30.0112 5.80506C30.0112 4.38423 30.0112 2.96535 30.0112 1.49559C29.5994 1.7324 29.2361 1.93984 28.8728 2.1512C28.0122 2.65808 27.1516 3.16106 26.291 3.66402Z" fill="#C4B779"/>
<path d="M8.93633 24.9722C8.93633 25.1483 8.93633 25.3225 8.93633 25.4888C9.02375 25.5534 9.0898 25.6024 9.15585 25.6513C7.79602 26.438 6.43808 27.2248 5.03351 28.037C6.5663 28.9274 8.05829 29.7944 9.5405 30.6555C10.9082 29.8649 12.2564 29.0859 13.6027 28.309C13.8436 28.4147 14.067 28.5497 14.2748 28.7102C13.659 29.1212 13.0004 29.4597 12.3652 29.8374C11.5745 30.3091 10.7741 30.7671 9.9815 31.2387C9.68426 31.4149 9.41423 31.4149 9.11117 31.2387C7.51433 30.3013 5.91161 29.3756 4.30889 28.4479C4.18844 28.3775 4.07771 28.2992 4 28.1661C4 20.0482 4 11.9205 4 3.77324C4.73434 3.3329 5.47256 2.8906 6.21079 2.4483C7.14911 1.88662 8.09131 1.33278 9.0218 0.755444C9.38509 0.530382 9.69592 0.514722 10.0728 0.739785C11.4851 1.58328 12.9111 2.40133 14.3331 3.22917C14.1175 3.37791 13.9057 3.53643 13.6551 3.6245C13.6085 3.60493 13.5561 3.59319 13.5133 3.56775C12.6721 3.08044 11.8329 2.59312 10.9917 2.10581C10.6537 1.91011 10.3118 1.71636 9.93098 1.49913C9.93098 2.97671 9.93098 4.3995 9.93098 5.82424C9.67455 5.98668 9.41811 6.14715 9.16168 6.30959C9.16168 4.72828 9.16168 3.14893 9.16168 1.52261C7.65615 2.41895 6.18942 3.29572 4.72851 4.16661C4.72851 11.9107 4.72851 19.6372 4.72851 27.397C5.44342 26.9821 6.12337 26.5809 6.80914 26.1895C7.51628 25.7824 8.20593 25.3401 8.93633 24.9722Z" fill="#C4B779"/>
<path d="M9.97131 13.3764C9.90914 13.4273 9.91886 13.4997 9.91886 13.5682C9.9208 15.2435 9.92274 16.9187 9.92468 18.594C9.69156 18.7662 9.43318 18.8914 9.17675 19.0226C9.17675 16.9872 9.1748 14.9499 9.1748 12.9146C9.43901 13.0672 9.70516 13.2218 9.97131 13.3764Z" fill="#C4B779"/>
<path d="M30.0068 18.6651C30.0612 18.5986 30.0496 18.5183 30.0496 18.442C30.0496 16.7883 30.0496 15.1346 30.0496 13.4789C30.0496 13.4104 30.0612 13.3399 30.0127 13.2793C30.2633 13.1207 30.5139 12.9622 30.7645 12.8037C30.7684 14.4809 30.7703 16.1581 30.7742 17.8353C30.7742 18.258 30.7761 18.6827 30.7781 19.1055C30.5081 18.9802 30.2555 18.8256 30.0068 18.6651Z" fill="#C4B779"/>
<path d="M19.5791 12.1342C19.5791 10.6116 19.5791 9.08702 19.5791 7.57029C19.6821 7.45483 19.8064 7.39806 19.921 7.34131C20.0706 7.37458 20.1833 7.45286 20.3154 7.5331C20.3154 7.60942 20.3154 7.68772 20.3154 7.76404C20.3154 9.2886 20.3154 10.8112 20.3154 12.3357C20.3154 12.414 20.3076 12.4903 20.3037 12.5686C20.0473 12.4473 19.8064 12.3025 19.5791 12.1342Z" fill="#C4B779"/>
<path d="M19.7012 19.5096C18.5958 20.1555 17.4885 20.8032 16.3831 21.4491C16.0858 21.6232 15.7886 21.7935 15.4875 21.9677C15.3632 21.9227 15.2582 21.8522 15.1572 21.7563C15.1572 21.6311 15.1572 21.5039 15.1572 21.3375C16.4355 20.5997 17.7294 19.8521 19.0232 19.1045C19.2505 19.2395 19.4758 19.3746 19.7012 19.5096Z" fill="#C4B779"/>
<path d="M174.432 11.6675V14.03H166.977V11.6675H174.432ZM168.817 8.5625H171.873V20.7294C171.873 21.14 171.935 21.455 172.059 21.6744C172.189 21.8881 172.358 22.0344 172.566 22.1131C172.774 22.1919 173.005 22.2313 173.258 22.2313C173.449 22.2313 173.624 22.2172 173.782 22.1891C173.945 22.1609 174.069 22.1356 174.153 22.1131L174.668 24.5009C174.505 24.5572 174.271 24.6191 173.967 24.6866C173.669 24.7541 173.303 24.7934 172.87 24.8047C172.104 24.8272 171.415 24.7119 170.801 24.4588C170.188 24.2 169.701 23.8006 169.341 23.2606C168.986 22.7206 168.811 22.0456 168.817 21.2356V8.5625Z" fill="#232429"/>
<path d="M161.197 24.8809C159.897 24.8809 158.774 24.6109 157.828 24.0709C156.888 23.5253 156.165 22.7547 155.658 21.759C155.152 20.7578 154.898 19.5793 154.898 18.2237C154.898 16.8906 155.152 15.7206 155.658 14.7137C156.171 13.7012 156.885 12.9137 157.803 12.3512C158.72 11.7831 159.798 11.499 161.036 11.499C161.836 11.499 162.59 11.6284 163.299 11.8871C164.014 12.1403 164.644 12.534 165.19 13.0684C165.742 13.6028 166.175 14.2834 166.491 15.1103C166.806 15.9315 166.963 16.9103 166.963 18.0465V18.9831H156.334V16.9243H164.034C164.028 16.3393 163.901 15.819 163.654 15.3634C163.406 14.9021 163.06 14.5393 162.615 14.275C162.176 14.0106 161.664 13.8784 161.079 13.8784C160.454 13.8784 159.905 14.0303 159.432 14.334C158.959 14.6321 158.591 15.0259 158.326 15.5153C158.067 15.999 157.935 16.5306 157.929 17.11V18.9072C157.929 19.6609 158.067 20.3078 158.343 20.8478C158.619 21.3822 159.005 21.7928 159.5 22.0797C159.995 22.3609 160.575 22.5015 161.239 22.5015C161.684 22.5015 162.086 22.4397 162.446 22.3159C162.807 22.1865 163.119 21.9981 163.384 21.7506C163.648 21.5031 163.848 21.1965 163.983 20.8309L166.837 21.1515C166.657 21.9053 166.313 22.5634 165.807 23.1259C165.306 23.6828 164.664 24.1159 163.882 24.4253C163.099 24.729 162.204 24.8809 161.197 24.8809Z" fill="#232429"/>
<path d="M146.83 20.5608L146.822 16.8736H147.311L151.972 11.6677H155.543L149.81 18.0464H149.177L146.83 20.5608ZM144.044 24.6277V7.34766H147.1V24.6277H144.044ZM152.183 24.6277L147.961 18.7298L150.022 16.5783L155.839 24.6277H152.183Z" fill="#232429"/>
<path d="M136.209 24.6276V11.6676H139.172V13.8276H139.308C139.544 13.0794 139.949 12.5029 140.523 12.0979C141.103 11.6872 141.764 11.4819 142.507 11.4819C142.676 11.4819 142.865 11.4904 143.073 11.5072C143.287 11.5185 143.464 11.5382 143.605 11.5663V14.376C143.476 14.331 143.27 14.2916 142.989 14.2579C142.713 14.2185 142.445 14.1988 142.187 14.1988C141.629 14.1988 141.128 14.3197 140.684 14.5616C140.245 14.7979 139.899 15.1269 139.645 15.5488C139.392 15.9707 139.265 16.4572 139.265 17.0085V24.6276H136.209Z" fill="#232429"/>
<path d="M127.881 24.8893C127.059 24.8893 126.319 24.7431 125.66 24.4506C125.007 24.1525 124.489 23.7137 124.107 23.1343C123.73 22.555 123.541 21.8406 123.541 20.9912C123.541 20.26 123.676 19.6553 123.946 19.1771C124.216 18.699 124.585 18.3165 125.052 18.0296C125.519 17.7428 126.046 17.5262 126.631 17.38C127.222 17.2281 127.833 17.1184 128.463 17.0509C129.223 16.9721 129.839 16.9018 130.312 16.84C130.785 16.7725 131.128 16.6712 131.342 16.5362C131.562 16.3956 131.672 16.179 131.672 15.8865V15.8359C131.672 15.2003 131.483 14.7081 131.106 14.3593C130.729 14.0106 130.186 13.8362 129.476 13.8362C128.728 13.8362 128.134 13.9993 127.695 14.3256C127.262 14.6518 126.969 15.0371 126.817 15.4815L123.963 15.0765C124.188 14.289 124.56 13.6309 125.078 13.1021C125.595 12.5678 126.229 12.1684 126.977 11.904C127.726 11.634 128.553 11.499 129.459 11.499C130.084 11.499 130.706 11.5721 131.325 11.7184C131.945 11.8646 132.51 12.1065 133.022 12.444C133.535 12.7759 133.945 13.2287 134.255 13.8025C134.57 14.3762 134.728 15.0934 134.728 15.954V24.6278H131.79V22.8475H131.688C131.503 23.2075 131.241 23.545 130.903 23.86C130.571 24.1693 130.152 24.4197 129.645 24.6109C129.144 24.7965 128.556 24.8893 127.881 24.8893ZM128.674 22.645C129.288 22.645 129.82 22.524 130.27 22.2822C130.72 22.0347 131.066 21.7084 131.308 21.3034C131.556 20.8984 131.68 20.4568 131.68 19.9787V18.4515C131.584 18.5303 131.421 18.6034 131.19 18.6709C130.965 18.7384 130.712 18.7975 130.43 18.8481C130.149 18.8987 129.87 18.9437 129.595 18.9831C129.319 19.0225 129.08 19.0562 128.877 19.0843C128.421 19.1462 128.013 19.2475 127.653 19.3881C127.292 19.5287 127.008 19.7256 126.8 19.9787C126.592 20.2262 126.488 20.5468 126.488 20.9406C126.488 21.5031 126.693 21.9278 127.104 22.2147C127.515 22.5015 128.038 22.645 128.674 22.645Z" fill="#232429"/>
<path d="M104.404 24.6278V11.6678H107.326V13.87H107.478C107.748 13.1275 108.195 12.5481 108.82 12.1318C109.445 11.71 110.191 11.499 111.057 11.499C111.935 11.499 112.676 11.7128 113.278 12.1403C113.886 12.5621 114.313 13.1387 114.561 13.87H114.696C114.983 13.15 115.467 12.5762 116.148 12.1487C116.835 11.7156 117.648 11.499 118.588 11.499C119.782 11.499 120.755 11.8759 121.51 12.6296C122.264 13.3834 122.641 14.4831 122.641 15.9287V24.6278H119.576V16.4012C119.576 15.5968 119.362 15.009 118.935 14.6378C118.507 14.2609 117.983 14.0725 117.364 14.0725C116.627 14.0725 116.05 14.3031 115.633 14.7643C115.222 15.22 115.017 15.8134 115.017 16.5446V24.6278H112.02V16.2747C112.02 15.6053 111.817 15.0709 111.412 14.6715C111.012 14.2721 110.489 14.0725 109.842 14.0725C109.402 14.0725 109.003 14.185 108.643 14.41C108.282 14.6293 107.995 14.9415 107.781 15.3465C107.568 15.7459 107.461 16.2128 107.461 16.7471V24.6278H104.404Z" fill="#232429"/>
<path d="M84.0479 9.97172V7.34766H97.8436V9.97172H92.4992V24.6277H89.3922V9.97172H84.0479Z" fill="#232429"/>
<path d="M65.4405 24.6277L60.5605 7.34766H63.9293L67.0447 20.0461H67.2051L70.5316 7.34766H73.5964L76.9313 20.0545H77.0833L80.1987 7.34766H83.5675L78.6875 24.6277H75.5974L72.1358 12.503H72.0007L68.5307 24.6277H65.4405Z" fill="#232429"/>
<path d="M56.6897 12.0979C56.6109 11.361 56.2788 10.7873 55.6934 10.3766C55.1137 9.96602 54.3595 9.7607 53.4307 9.7607C52.7778 9.7607 52.2178 9.85914 51.7506 10.056C51.2834 10.2529 50.926 10.5201 50.6783 10.8576C50.4307 11.1951 50.304 11.5804 50.2984 12.0135C50.2984 12.3735 50.38 12.6857 50.5433 12.9501C50.7121 13.2145 50.9401 13.4395 51.2271 13.6251C51.5142 13.8051 51.8322 13.957 52.1812 14.0807C52.5302 14.2045 52.8819 14.3085 53.2365 14.3929L54.8576 14.7979C55.5105 14.9498 56.1381 15.1551 56.7404 15.4138C57.3482 15.6726 57.8914 15.9988 58.3698 16.3926C58.8539 16.7863 59.2366 17.2616 59.5181 17.8185C59.7995 18.3754 59.9402 19.0279 59.9402 19.776C59.9402 20.7885 59.6813 21.6801 59.1635 22.4507C58.6456 23.2157 57.897 23.8148 56.9177 24.2479C55.9439 24.6754 54.7647 24.8891 53.3801 24.8891C52.0348 24.8891 50.8669 24.681 49.8763 24.2648C48.8913 23.8485 48.1201 23.241 47.5629 22.4423C47.0113 21.6435 46.713 20.6704 46.668 19.5229H49.7496C49.7947 20.1248 49.9804 20.6254 50.3069 21.0248C50.6333 21.4241 51.0583 21.7223 51.5817 21.9191C52.1108 22.116 52.7018 22.2145 53.3548 22.2145C54.0358 22.2145 54.6324 22.1132 55.1446 21.9107C55.6625 21.7026 56.0677 21.4157 56.3604 21.0501C56.6531 20.6788 56.8023 20.2457 56.8079 19.7507C56.8023 19.3007 56.67 18.9295 56.4111 18.637C56.1522 18.3388 55.7891 18.0913 55.3219 17.8945C54.8604 17.692 54.3201 17.512 53.7009 17.3545L51.7337 16.8482C50.3097 16.4826 49.184 15.9285 48.3565 15.186C47.5348 14.4379 47.1239 13.4451 47.1239 12.2076C47.1239 11.1895 47.3997 10.2979 47.9513 9.53289C48.5085 8.76789 49.2656 8.17445 50.2224 7.75258C51.1793 7.32508 52.2628 7.11133 53.473 7.11133C54.7 7.11133 55.7751 7.32508 56.6981 7.75258C57.6269 8.17445 58.3558 8.76227 58.8849 9.51602C59.4139 10.2641 59.6869 11.1248 59.7038 12.0979H56.6897Z" fill="#232429"/>
</g>
<defs>
<filter id="filter0_d_1_26" x="0" y="0" width="178.668" height="40" filterUnits="userSpaceOnUse" color-interpolation-filters="sRGB">
<feFlood flood-opacity="0" result="BackgroundImageFix"/>
<feColorMatrix in="SourceAlpha" type="matrix" values="0 0 0 0 0 0 0 0 0 0 0 0 0 0 0 0 0 0 127 0" result="hardAlpha"/>
<feOffset dy="4"/>
<feGaussianBlur stdDeviation="2"/>
<feComposite in2="hardAlpha" operator="out"/>
<feColorMatrix type="matrix" values="0 0 0 0 0 0 0 0 0 0 0 0 0 0 0 0 0 0 0.25 0"/>
<feBlend mode="normal" in2="BackgroundImageFix" result="effect1_dropShadow_1_26"/>
<feBlend mode="normal" in="SourceGraphic" in2="effect1_dropShadow_1_26" result="shape"/>
</filter>
</defs>
</svg>
